<svg xmlns="http://www.w3.org/2000/svg" viewBox="0 0 1200 630" role="img" aria-label="Nadine Pierre websites, book series and resources">
  <rect width="1200" height="630" fill="#fbf7f1"/>
  <path d="M0 0h1200v630H0z" fill="#fbf7f1"/>
  <path d="M770-140c179 34 304 164 354 319 49 153 29 336-76 455H745c83-78 125-188 105-296-19-106-97-201-198-246L770-140Z" fill="#21102f"/>
  <path d="M850 0c96 49 170 139 200 244 32 113 10 238-58 334" fill="none" stroke="#c99a3b" stroke-width="7" opacity=".85"/>
  <circle cx="204" cy="156" r="104" fill="#21102f"/>
  <circle cx="204" cy="156" r="84" fill="#12071d" stroke="#c99a3b" stroke-width="7"/>
  <text x="204" y="184" text-anchor="middle" font-family="Georgia, serif" font-size="86" font-weight="700" fill="#fbf7f1">NP</text>
  <text x="112" y="362" font-family="Georgia, serif" font-size="96" font-weight="700" fill="#21102f">Nadine Pierre</text>
  <text x="116" y="432" font-family="Arial, sans-serif" font-size="34" font-weight="700" fill="#8a3f5a">Leadership, books, AI prompts and resources</text>
  <text x="116" y="493" font-family="Arial, sans-serif" font-size="29" fill="#665b6d">Explore my websites, projects and resources.</text>
  <rect x="116" y="548" width="384" height="12" rx="6" fill="#c99a3b"/>
  <text x="806" y="438" font-family="Arial, sans-serif" font-size="28" font-weight="700" fill="#f3dfae">app.nadinepierre.com</text>
</svg>
